<svg id="1and1-ionos" data-name="1and1-ionos" xmlns="http://www.w3.org/2000/svg" viewBox="0 0 422.05 113.39"><title>logo-1and1-ionos-white</title><path id="IONOS" d="M375.33,93.56a18.86,18.86,0,0,1-3.75-.38A19.42,19.42,0,0,1,358.78,84l-.07-.12a5.74,5.74,0,0,1,2.12-7.59,5.49,5.49,0,0,1,2.85-.79,5.65,5.65,0,0,1,4.9,2.88c.06.11.13.21.2.32l.59.81.8.81a7.75,7.75,0,0,0,3.66,1.77,8.07,8.07,0,0,0,6.31-1.44A7.61,7.61,0,0,0,383.3,75a7.86,7.86,0,0,0-2.19-6.12s-18.44-19-18.83-19.52L361.37,48a17.94,17.94,0,0,1-2.77-11.34A18.36,18.36,0,0,1,361,28.84l.81-1.41a16.92,16.92,0,0,1,5.57-5.05l.91-.66a18.52,18.52,0,0,1,25,7,5.46,5.46,0,0,1,.59,4.26,5.61,5.61,0,0,1-2.68,3.46,5.41,5.41,0,0,1-2.74.74,5.59,5.59,0,0,1-4.88-2.87,7.36,7.36,0,0,0-4.93-3.48,7.63,7.63,0,0,0-6,1.34,7.29,7.29,0,0,0-2.83,5.28,7.39,7.39,0,0,0,2,5.72l17.32,17.86A19.09,19.09,0,0,1,387,89.65,19.55,19.55,0,0,1,375.33,93.56Zm-54.82,0a18.66,18.66,0,0,1-18.64-18.63V38.06a18.64,18.64,0,0,1,37.27,0V74.92A18.65,18.65,0,0,1,320.51,93.55Zm0-62.87a7.4,7.4,0,0,0-7.39,7.38V74.92a7.31,7.31,0,0,0,7.39,7.38,7.39,7.39,0,0,0,7.38-7.38V38.06A7.48,7.48,0,0,0,320.51,30.68ZM248.15,57.44V87.92a5.63,5.63,0,0,1-11.25,0V34.1ZM278.5,78.9V25.06a5.63,5.63,0,1,0-11.25,0v30.5ZM247.62,22.62l-.05-.1a5.86,5.86,0,0,0-5.09-3.06,6,6,0,0,0-1.14.12,5.51,5.51,0,0,0-4.44,5.48v1.28l30.93,64.12a5.79,5.79,0,0,0,5,3.09,4.72,4.72,0,0,0,1.28-.17,5.51,5.51,0,0,0,4.39-5.46V86.71S248.44,24.34,247.62,22.62ZM194.74,93.55A18.68,18.68,0,0,1,176.1,74.92V38.06a18.64,18.64,0,0,1,37.27,0V74.92a18.68,18.68,0,0,1-18.63,18.63Zm0-62.87a7.41,7.41,0,0,0-7.39,7.38V74.92a7.39,7.39,0,0,0,14.77,0V38.06a7.52,7.52,0,0,0-7.38-7.38ZM152.61,87.32c0-.7,0-61.7,0-61.7a6.58,6.58,0,0,0-.08-1l0-.26a2.33,2.33,0,0,0-.11-.44,6,6,0,0,0-5.89-4.51,6.09,6.09,0,0,0-6.14,6V87.33a6.14,6.14,0,1,0,12.27,0Z" style="fill:#fff"/><polygon id="box-white" points="0 0 113.39 0 113.39 113.39 0 113.39 0 0 0 0" style="fill:#fff"/><polygon id="box-blue" points="1.91 1.91 111.57 1.91 111.57 111.56 1.91 111.56 1.91 1.91 1.91 1.91" style="fill:#164194"/><path id="_1and1" data-name="1and1" d="M69.66,55.82c.08,1.27.16,2.43.18,2.83.13,3.33-.51,7.45-1.25,8.12l-8.92-12.1c6-5,8-8.55,8-13.32,0-6.52-5.06-11.28-12.21-11.28-7.71,0-13.15,4.68-13.15,11,0,3.73,1,5.8,5.62,11.76-7.24,4.18-11,10-10.61,15.63.68,9.44,7.86,14.74,18.3,14.8,5.33,0,8.64-1.1,12.4-4.11l2.3,3.1H80.5l-6.6-8.75c3.13-4,4.15-8.09,4.15-14.61,0-.4-.1-2-.1-3.11ZM54.75,48.49c-3-3.82-3.61-5-3.61-7.14a3.94,3.94,0,0,1,4.26-3.86c2.57,0,4.18,1.48,4.18,3.78s-1.3,4.67-4.83,7.22Zm8.07,24A10.66,10.66,0,0,1,55.6,75.2c-5.22,0-8.77-2.72-8.9-7-.08-2.78,1.75-5.74,6.33-8.77l9.79,13ZM31,82.3H20.64V39H12.38V30.68H31V82.3Zm66,0H86.67V39H78.41V30.68H97V82.3Z" style="fill:#fff;fill-rule:evenodd"/></svg>